<svg xmlns="http://www.w3.org/2000/svg" xmlns:xlink="http://www.w3.org/1999/xlink" width="48" height="48" version="1.1" viewBox="0 0 48 48"><title>ic_launcher_mdpi</title><desc>Created with Sketch.</desc><defs><path id="path-1" d="M17.9925395,42 L33.9654638,42 C34.5068822,42 35.0005482,41.5079763 35.0005482,40.9641251 L35.0005482,15.2503314 C35.0005482,14.9790789 34.8902468,14.7084995 34.6985645,14.5166708 L20.5772963,0.315963596 C20.3883043,0.118750248 20.1172588,0.0029799548 19.8441956,0.000287622396 L10.9319055,0.000287622396 L2.01961529,0.000287622396 C1.48357743,0.0083646196 1,0.497696034 1,1.03414326 L1,40.9641251 C1,41.5005723 1.48357743,41.991923 2.01961529,42 L17.9925395,42 L17.9925395,42 Z"/><filter id="filter-2" width="200%" height="200%" x="-50%" y="-50%" filterUnits="objectBoundingBox"><feOffset dx="0" dy="-1" in="SourceAlpha" result="shadowOffsetInner1"/><feComposite in="shadowOffsetInner1" in2="SourceAlpha" k2="-1" k3="1" operator="arithmetic" result="shadowInnerInner1"/><feColorMatrix in="shadowInnerInner1" result="shadowMatrixInner1" type="matrix" values="0 0 0 0 0.749019608 0 0 0 0 0.211764706 0 0 0 0 0.0470588235 0 0 0 0.2 0"/><feOffset dx="0" dy="1" in="SourceAlpha" result="shadowOffsetInner2"/><feComposite in="shadowOffsetInner2" in2="SourceAlpha" k2="-1" k3="1" operator="arithmetic" result="shadowInnerInner2"/><feColorMatrix in="shadowInnerInner2" result="shadowMatrixInner2" type="matrix" values="0 0 0 0 1 0 0 0 0 1 0 0 0 0 1 0 0 0 0.2 0"/><feMerge><feMergeNode in="shadowMatrixInner1"/><feMergeNode in="shadowMatrixInner2"/></feMerge></filter><path id="path-3" d="M25.280646,0.000287622396 C24.8764318,-0.00974872216 24.4742352,0.24383625 24.3161814,0.609828282 C24.1588002,0.975151224 24.2509422,1.43280854 24.540147,1.712488 L33.2546294,10.4106533 C33.5350909,10.6903328 33.9924381,10.7846744 34.3630239,10.6354674 C34.7362999,10.4862604 34.998602,10.1075557 35.0012923,9.71546916 L35.0012923,1.00191481 C35.0012923,0.476010355 34.5156971,-0.00171964652 33.9796593,0.000287622396 L25.280646,0.000287622396 L25.280646,0.000287622396 L25.280646,0.000287622396 Z"/><filter id="filter-4" width="200%" height="200%" x="-50%" y="-50%" filterUnits="objectBoundingBox"><feOffset dx="0" dy="-1" in="SourceAlpha" result="shadowOffsetInner1"/><feComposite in="shadowOffsetInner1" in2="SourceAlpha" k2="-1" k3="1" operator="arithmetic" result="shadowInnerInner1"/><feColorMatrix in="shadowInnerInner1" result="shadowMatrixInner1" type="matrix" values="0 0 0 0 0.749019608 0 0 0 0 0.211764706 0 0 0 0 0.0470588235 0 0 0 0.2 0"/><feOffset dx="0" dy="1" in="SourceAlpha" result="shadowOffsetInner2"/><feComposite in="shadowOffsetInner2" in2="SourceAlpha" k2="-1" k3="1" operator="arithmetic" result="shadowInnerInner2"/><feColorMatrix in="shadowInnerInner2" result="shadowMatrixInner2" type="matrix" values="0 0 0 0 1 0 0 0 0 1 0 0 0 0 1 0 0 0 0.2 0"/><feMerge><feMergeNode in="shadowMatrixInner1"/><feMergeNode in="shadowMatrixInner2"/></feMerge></filter><rect id="path-5" width="34" height="42" x="0" y="0"/><linearGradient id="linearGradient-7" x1="0%" x2="100%" y1="-27.714%" y2="100%"><stop offset="0%" stop-color="#000" stop-opacity=".1"/><stop offset="100%" stop-color="#212121" stop-opacity=".05"/></linearGradient><polygon id="path-8" points="2 40 32 40 32 15.6 18.5 2 2 2"/><filter id="filter-9" width="200%" height="200%" x="-50%" y="-50%" filterUnits="objectBoundingBox"><feOffset dx="0" dy="1" in="SourceAlpha" result="shadowOffsetOuter1"/><feColorMatrix in="shadowOffsetOuter1" result="shadowMatrixOuter1" type="matrix" values="0 0 0 0 0 0 0 0 0 0 0 0 0 0 0 0 0 0 0.2 0"/><feOffset dx="2" dy="2" in="SourceAlpha" result="shadowOffsetOuter2"/><feGaussianBlur in="shadowOffsetOuter2" result="shadowBlurOuter2" stdDeviation="1"/><feColorMatrix in="shadowBlurOuter2" result="shadowMatrixOuter2" type="matrix" values="0 0 0 0 0 0 0 0 0 0 0 0 0 0 0 0 0 0 0.2 0"/><feMerge><feMergeNode in="shadowMatrixOuter1"/><feMergeNode in="shadowMatrixOuter2"/></feMerge></filter><filter id="filter-10" width="200%" height="200%" x="-50%" y="-50%" filterUnits="objectBoundingBox"><feOffset dx="0" dy="1" in="SourceAlpha" result="shadowOffsetInner1"/><feComposite in="shadowOffsetInner1" in2="SourceAlpha" k2="-1" k3="1" operator="arithmetic" result="shadowInnerInner1"/><feColorMatrix in="shadowInnerInner1" result="shadowMatrixInner1" type="matrix" values="0 0 0 0 1 0 0 0 0 1 0 0 0 0 1 0 0 0 0.4 0"/><feOffset dx="0" dy="-1" in="SourceAlpha" result="shadowOffsetInner2"/><feComposite in="shadowOffsetInner2" in2="SourceAlpha" k2="-1" k3="1" operator="arithmetic" result="shadowInnerInner2"/><feColorMatrix in="shadowInnerInner2" result="shadowMatrixInner2" type="matrix" values="0 0 0 0 0.129411765 0 0 0 0 0.129411765 0 0 0 0 0.129411765 0 0 0 0.1 0"/><feMerge><feMergeNode in="shadowMatrixInner1"/><feMergeNode in="shadowMatrixInner2"/></feMerge></filter><linearGradient id="linearGradient-11" x1="-11.418%" x2="108.432%" y1="0%" y2="100%"><stop offset="0%" stop-color="#FFF" stop-opacity=".1"/><stop offset="9.348%" stop-color="#FFF" stop-opacity=".091"/><stop offset="100%" stop-color="#FFF" stop-opacity="0"/></linearGradient><linearGradient id="linearGradient-12" x1="0%" x2="123.999%" y1="0%" y2="93.949%"><stop offset="0%" stop-color="#212121" stop-opacity=".1"/><stop offset="100%" stop-color="#212121" stop-opacity="0"/></linearGradient><rect id="path-13" width="34" height="21" x="0" y="0"/><rect id="path-15" width="10" height="18" x="12" y="4" rx="2"/><filter id="filter-16" width="200%" height="200%" x="-50%" y="-50%" filterUnits="objectBoundingBox"><feOffset dx="1" dy="1" in="SourceAlpha" result="shadowOffsetOuter1"/><feGaussianBlur in="shadowOffsetOuter1" result="shadowBlurOuter1" stdDeviation=".5"/><feColorMatrix in="shadowBlurOuter1" result="shadowMatrixOuter1" type="matrix" values="0 0 0 0 0 0 0 0 0 0 0 0 0 0 0 0 0 0 0.2 0"/><feOffset dx="0" dy="1" in="SourceAlpha" result="shadowOffsetOuter2"/><feColorMatrix in="shadowOffsetOuter2" result="shadowMatrixOuter2" type="matrix" values="0 0 0 0 0 0 0 0 0 0 0 0 0 0 0 0 0 0 0.2 0"/><feMerge><feMergeNode in="shadowMatrixOuter1"/><feMergeNode in="shadowMatrixOuter2"/></feMerge></filter><rect id="path-17" width="10" height="18" x="19" y="28" rx="2"/><filter id="filter-18" width="200%" height="200%" x="-50%" y="-50%" filterUnits="objectBoundingBox"><feOffset dx="0" dy="-1" in="SourceAlpha" result="shadowOffsetInner1"/><feComposite in="shadowOffsetInner1" in2="SourceAlpha" k2="-1" k3="1" operator="arithmetic" result="shadowInnerInner1"/><feColorMatrix in="shadowInnerInner1" result="shadowMatrixInner1" type="matrix" values="0 0 0 0 0 0 0 0 0 0 0 0 0 0 0 0 0 0 0.2 0"/><feOffset dx="0" dy="1" in="SourceAlpha" result="shadowOffsetInner2"/><feComposite in="shadowOffsetInner2" in2="SourceAlpha" k2="-1" k3="1" operator="arithmetic" result="shadowInnerInner2"/><feColorMatrix in="shadowInnerInner2" result="shadowMatrixInner2" type="matrix" values="0 0 0 0 1 0 0 0 0 1 0 0 0 0 1 0 0 0 0.2 0"/><feMerge><feMergeNode in="shadowMatrixInner1"/><feMergeNode in="shadowMatrixInner2"/></feMerge></filter><linearGradient id="linearGradient-19" x1="-34.935%" x2="127.518%" y1="0%" y2="100%"><stop offset="0%" stop-color="#FFF" stop-opacity=".1"/><stop offset="100%" stop-color="#FFF" stop-opacity="0"/></linearGradient></defs><g id="Icons" fill="none" fill-rule="evenodd" stroke="none" stroke-width="1"><g id="ic_launcher_mdpi"><g id="orange_mdpi" transform="translate(6.000000, 3.000000)"><g id="Doc"><use fill="#D36118" fill-rule="evenodd" xlink:href="#path-1"/><use fill="#000" fill-opacity="1" filter="url(#filter-2)" xlink:href="#path-1"/></g><g id="Corner"><use fill="#D36118" fill-rule="evenodd" xlink:href="#path-3"/><use fill="#000" fill-opacity="1" filter="url(#filter-4)" xlink:href="#path-3"/></g></g><g id="paper_mdpi" transform="translate(7.000000, 3.000000)"><mask id="mask-6" fill="#fff"><use xlink:href="#path-5"/></mask><path id="Long-Shadow" fill="url(#linearGradient-7)" fill-rule="evenodd" d="M24.9790017,42 L4,42 L2,40 L32,40 L32,15.6000004 L34,17.6000004 L34,40.9955454 C33.9814795,41.5267806 33.4964354,42 32.9654638,42 L24.9790017,42 Z" mask="url(#mask-6)"/><g id="Paper" mask="url(#mask-6)"><use fill="#000" fill-opacity="1" filter="url(#filter-9)" xlink:href="#path-8"/><use fill="#F5F5F5" fill-rule="evenodd" xlink:href="#path-8"/><use fill="#000" fill-opacity="1" filter="url(#filter-10)" xlink:href="#path-8"/></g></g><g id="finish_mdpi" fill="url(#linearGradient-11)" transform="translate(6.000000, 3.000000)"><path id="Combined-Shape" d="M33.9654638,42 C34.5068822,42 35.0005482,41.5079763 35.0005482,40.9641251 L35.0005482,15.2503314 C35.0005482,14.9790789 34.8902468,14.7084995 34.6985645,14.5166708 L20.5772963,0.315963596 C20.3883043,0.118750248 20.1172588,0.0029799548 19.8441956,0.000287622396 L10.9319055,0.000287622396 L2.01961529,0.000287622396 C1.48357743,0.0083646196 1,0.497696034 1,1.03414326 L1,40.9641251 C1,41.5005723 1.48357743,41.991923 2.01961529,42 L17.9925395,42 L33.9654638,42 Z M25.280646,0.000287622396 C24.8764318,-0.00974872216 24.4742352,0.24383625 24.3161814,0.609828282 C24.1588002,0.975151224 24.2509422,1.43280854 24.540147,1.712488 L33.2546294,10.4106533 C33.5350909,10.6903328 33.9924381,10.7846744 34.3630239,10.6354674 C34.7362999,10.4862604 34.998602,10.1075557 35.0012923,9.71546916 L35.0012923,1.00191481 C35.0012923,0.476010355 34.5156971,-0.00171964652 33.9796593,0.000287622396 L25.280646,0.000287622396 Z"/></g><path id="Combined-Shape" fill="url(#linearGradient-12)" d="M41.0005482,41.0005482 L28,28 L28,44.9997124 L39.9654638,44.9997124 C40.5068822,44.9997124 41.0005482,44.5076886 41.0005482,43.9638375 L41.0005482,41.0005482 Z"/><g id="Phone-Shadow" transform="translate(7.000000, 24.000000)"><mask id="mask-14" fill="#fff"><use xlink:href="#path-13"/></mask><g id="Finish-Copy" fill="#000" fill-opacity="1" mask="url(#mask-14)"><use filter="url(#filter-16)" xlink:href="#path-15"/></g></g><g id="Rectangle"><use fill="#212121" fill-rule="evenodd" xlink:href="#path-17"/><use fill="#000" fill-opacity="1" filter="url(#filter-18)" xlink:href="#path-17"/></g><rect id="Finish" width="10" height="18" x="19" y="28" fill="url(#linearGradient-19)" rx="2"/><path id="Bars-Copy" fill="#18A6F8" d="M29,26.0381723 C28.2008869,24.0474162 26.26333,22.6428614 24,22.6428614 C21.73667,22.6428614 19.7991131,24.0474162 19,26.0381723 C20.2937,24.7765012 22.0567995,24.0000049 24,24.0000049 C25.9432005,24.0000049 27.7063,24.7765012 29,26.0381723 Z M31.5,24.1167782 C30.3013303,21.1306441 27.3949951,19.0238119 24,19.0238119 C20.6050049,19.0238119 17.6986697,21.1306441 16.5,24.1167782 C18.44055,22.2242717 21.0851993,21.0595272 24,21.0595272 C26.9148007,21.0595272 29.55945,22.2242717 31.5,24.1167782 Z M34,21.2906218 C32.4017737,17.3091096 28.5266601,14.5 24,14.5 C19.4733399,14.5 15.5982263,17.3091096 14,21.2906218 C16.5874,18.7672797 20.113599,17.2142871 24,17.2142871 C27.886401,17.2142871 31.4126,18.7672797 34,21.2906218 Z"/></g></g></svg>