<svg xmlns="http://www.w3.org/2000/svg" xmlns:xlink="http://www.w3.org/1999/xlink" width="144" height="144" version="1.1" viewBox="0 0 144 144"><title>ic_launcher_xxhdpi</title><desc>Created with Sketch.</desc><defs><path id="path-1" d="M51.9767959,126 L3.05879749,126 C1.45070936,125.975769 0,124.501717 0,122.892375 L0,3.10242979 C0,1.4930881 1.45070936,0.0250938588 3.05879749,0.000862867189 L30.7952286,0.000862867189 L58.5316598,0.000862867189 C59.3508364,0.00893986439 60.16396,0.356250744 60.7309271,0.947890789 L103.094062,43.5500125 C103.6691,44.1254986 103.999998,44.9372368 103.999998,45.7509943 L103.999998,122.892375 C103.999998,124.523929 102.519024,126 100.894794,126 L51.9767959,126 L51.9767959,126 Z"/><filter id="filter-2" width="200%" height="200%" x="-50%" y="-50%" filterUnits="objectBoundingBox"><feOffset dx="0" dy="-1" in="SourceAlpha" result="shadowOffsetInner1"/><feComposite in="shadowOffsetInner1" in2="SourceAlpha" k2="-1" k3="1" operator="arithmetic" result="shadowInnerInner1"/><feColorMatrix in="shadowInnerInner1" result="shadowMatrixInner1" type="matrix" values="0 0 0 0 0.749019608 0 0 0 0 0.211764706 0 0 0 0 0.0470588235 0 0 0 0.2 0"/><feOffset dx="0" dy="1" in="SourceAlpha" result="shadowOffsetInner2"/><feComposite in="shadowOffsetInner2" in2="SourceAlpha" k2="-1" k3="1" operator="arithmetic" result="shadowInnerInner2"/><feColorMatrix in="shadowInnerInner2" result="shadowMatrixInner2" type="matrix" values="0 0 0 0 1 0 0 0 0 1 0 0 0 0 1 0 0 0 0.2 0"/><feMerge><feMergeNode in="shadowMatrixInner1"/><feMergeNode in="shadowMatrixInner2"/></feMerge></filter><path id="path-3" d="M74.8419399,0.000862867189 C73.6292972,-0.0292461665 72.4227076,0.731508751 71.9485461,1.82948485 C71.4764024,2.92545367 71.7528284,4.29842561 72.620443,5.13746401 L98.7638901,31.2319599 C99.6052745,32.0709983 100.977316,32.3540232 102.089073,31.9064022 C103.208902,31.4587813 103.995808,30.3226671 104.003879,29.1464075 L104.003879,3.00574443 C104.003879,1.42803106 102.547093,-0.00515893955 100.93898,0.000862867189 L74.8419399,0.000862867189 L74.8419399,0.000862867189 L74.8419399,0.000862867189 Z"/><filter id="filter-4" width="200%" height="200%" x="-50%" y="-50%" filterUnits="objectBoundingBox"><feOffset dx="0" dy="-1" in="SourceAlpha" result="shadowOffsetInner1"/><feComposite in="shadowOffsetInner1" in2="SourceAlpha" k2="-1" k3="1" operator="arithmetic" result="shadowInnerInner1"/><feColorMatrix in="shadowInnerInner1" result="shadowMatrixInner1" type="matrix" values="0 0 0 0 0.749019608 0 0 0 0 0.211764706 0 0 0 0 0.0470588235 0 0 0 0.2 0"/><feOffset dx="0" dy="1" in="SourceAlpha" result="shadowOffsetInner2"/><feComposite in="shadowOffsetInner2" in2="SourceAlpha" k2="-1" k3="1" operator="arithmetic" result="shadowInnerInner2"/><feColorMatrix in="shadowInnerInner2" result="shadowMatrixInner2" type="matrix" values="0 0 0 0 1 0 0 0 0 1 0 0 0 0 1 0 0 0 0.2 0"/><feMerge><feMergeNode in="shadowMatrixInner1"/><feMergeNode in="shadowMatrixInner2"/></feMerge></filter><linearGradient id="linearGradient-5" x1="0%" x2="100%" y1="-26.489%" y2="100%"><stop offset="0%" stop-color="#000" stop-opacity=".1"/><stop offset="100%" stop-color="#212121" stop-opacity=".05"/></linearGradient><polygon id="path-6" points="6 120 98 120 98 46.8 57 6 6 6"/><filter id="filter-7" width="200%" height="200%" x="-50%" y="-50%" filterUnits="objectBoundingBox"><feOffset dx="0" dy="1" in="SourceAlpha" result="shadowOffsetOuter1"/><feColorMatrix in="shadowOffsetOuter1" result="shadowMatrixOuter1" type="matrix" values="0 0 0 0 0 0 0 0 0 0 0 0 0 0 0 0 0 0 0.2 0"/><feOffset dx="2" dy="2" in="SourceAlpha" result="shadowOffsetOuter2"/><feGaussianBlur in="shadowOffsetOuter2" result="shadowBlurOuter2" stdDeviation="1"/><feColorMatrix in="shadowBlurOuter2" result="shadowMatrixOuter2" type="matrix" values="0 0 0 0 0 0 0 0 0 0 0 0 0 0 0 0 0 0 0.2 0"/><feMerge><feMergeNode in="shadowMatrixOuter1"/><feMergeNode in="shadowMatrixOuter2"/></feMerge></filter><filter id="filter-8" width="200%" height="200%" x="-50%" y="-50%" filterUnits="objectBoundingBox"><feOffset dx="0" dy="1" in="SourceAlpha" result="shadowOffsetInner1"/><feComposite in="shadowOffsetInner1" in2="SourceAlpha" k2="-1" k3="1" operator="arithmetic" result="shadowInnerInner1"/><feColorMatrix in="shadowInnerInner1" result="shadowMatrixInner1" type="matrix" values="0 0 0 0 1 0 0 0 0 1 0 0 0 0 1 0 0 0 0.4 0"/><feOffset dx="0" dy="-1" in="SourceAlpha" result="shadowOffsetInner2"/><feComposite in="shadowOffsetInner2" in2="SourceAlpha" k2="-1" k3="1" operator="arithmetic" result="shadowInnerInner2"/><feColorMatrix in="shadowInnerInner2" result="shadowMatrixInner2" type="matrix" values="0 0 0 0 0.129411765 0 0 0 0 0.129411765 0 0 0 0 0.129411765 0 0 0 0.1 0"/><feMerge><feMergeNode in="shadowMatrixInner1"/><feMergeNode in="shadowMatrixInner2"/></feMerge></filter><linearGradient id="linearGradient-9" x1="-11.418%" x2="108.432%" y1="0%" y2="100%"><stop offset="0%" stop-color="#FFF" stop-opacity=".1"/><stop offset="9.348%" stop-color="#FFF" stop-opacity=".091"/><stop offset="100%" stop-color="#FFF" stop-opacity="0"/></linearGradient><linearGradient id="linearGradient-10" x1="0%" x2="123.999%" y1="0%" y2="93.949%"><stop offset="0%" stop-color="#212121" stop-opacity=".1"/><stop offset="100%" stop-color="#212121" stop-opacity="0"/></linearGradient><rect id="path-11" width="104" height="87" x="0" y="0"/><rect id="path-13" width="33" height="54" x="36" y="36" rx="2"/><filter id="filter-14" width="200%" height="200%" x="-50%" y="-50%" filterUnits="objectBoundingBox"><feOffset dx="3" dy="3" in="SourceAlpha" result="shadowOffsetOuter1"/><feGaussianBlur in="shadowOffsetOuter1" result="shadowBlurOuter1" stdDeviation="1.5"/><feColorMatrix in="shadowBlurOuter1" result="shadowMatrixOuter1" type="matrix" values="0 0 0 0 0 0 0 0 0 0 0 0 0 0 0 0 0 0 0.2 0"/><feOffset dx="0" dy="1" in="SourceAlpha" result="shadowOffsetOuter2"/><feColorMatrix in="shadowOffsetOuter2" result="shadowMatrixOuter2" type="matrix" values="0 0 0 0 0 0 0 0 0 0 0 0 0 0 0 0 0 0 0.2 0"/><feMerge><feMergeNode in="shadowMatrixOuter1"/><feMergeNode in="shadowMatrixOuter2"/></feMerge></filter><rect id="path-15" width="33" height="54" x="56" y="84" rx="2"/><filter id="filter-16" width="200%" height="200%" x="-50%" y="-50%" filterUnits="objectBoundingBox"><feOffset dx="0" dy="-1" in="SourceAlpha" result="shadowOffsetInner1"/><feComposite in="shadowOffsetInner1" in2="SourceAlpha" k2="-1" k3="1" operator="arithmetic" result="shadowInnerInner1"/><feColorMatrix in="shadowInnerInner1" result="shadowMatrixInner1" type="matrix" values="0 0 0 0 0 0 0 0 0 0 0 0 0 0 0 0 0 0 0.2 0"/><feOffset dx="0" dy="1" in="SourceAlpha" result="shadowOffsetInner2"/><feComposite in="shadowOffsetInner2" in2="SourceAlpha" k2="-1" k3="1" operator="arithmetic" result="shadowInnerInner2"/><feColorMatrix in="shadowInnerInner2" result="shadowMatrixInner2" type="matrix" values="0 0 0 0 1 0 0 0 0 1 0 0 0 0 1 0 0 0 0.2 0"/><feMerge><feMergeNode in="shadowMatrixInner1"/><feMergeNode in="shadowMatrixInner2"/></feMerge></filter><linearGradient id="linearGradient-17" x1="-34.935%" x2="127.518%" y1="0%" y2="100%"><stop offset="0%" stop-color="#FFF" stop-opacity=".1"/><stop offset="100%" stop-color="#FFF" stop-opacity="0"/></linearGradient></defs><g id="Icons" fill="none" fill-rule="evenodd" stroke="none" stroke-width="1"><g id="ic_launcher_xxhdpi"><g id="orange_xxhdpi" transform="translate(20.000000, 9.000000)"><g id="Doc"><use fill="#D36118" fill-rule="evenodd" xlink:href="#path-1"/><use fill="#000" fill-opacity="1" filter="url(#filter-2)" xlink:href="#path-1"/></g><g id="Corner"><use fill="#D36118" fill-rule="evenodd" xlink:href="#path-3"/><use fill="#000" fill-opacity="1" filter="url(#filter-4)" xlink:href="#path-3"/></g></g><g id="paper_xxhdpi" transform="translate(20.000000, 9.000000)"><path id="Combined-Shape" fill="url(#linearGradient-5)" fill-rule="evenodd" d="M96.2305756,126 L12,125.999996 L6,119.999996 L97.9999978,119.999996 L97.9999978,46.7999992 L103.996986,52.7969872 L103.996986,118.252229 C103.996597,122.297831 100.301228,125.979608 96.2305756,126 Z"/><g id="Paper"><use fill="#000" fill-opacity="1" filter="url(#filter-7)" xlink:href="#path-6"/><use fill="#F5F5F5" fill-rule="evenodd" xlink:href="#path-6"/><use fill="#000" fill-opacity="1" filter="url(#filter-8)" xlink:href="#path-6"/></g></g><g id="finish_xxhdpi" fill="url(#linearGradient-9)" transform="translate(20.000000, 9.000000)"><path id="Combined-Shape" d="M51.9767959,126 L3.05879749,126 C1.45070936,125.975769 0,124.501717 0,122.892375 L0,3.10242979 C0,1.4930881 1.45070936,0.0250938588 3.05879749,0.000862867189 L30.7952286,0.000862867189 L58.5316598,0.000862867189 C59.3508364,0.00893986439 60.16396,0.356250744 60.7309271,0.947890789 L103.094062,43.5500125 C103.6691,44.1254986 103.999998,44.9372368 103.999998,45.7509943 L103.999998,122.892375 C103.999998,124.523929 102.519024,126 100.894794,126 L51.9767959,126 L51.9767959,126 Z M74.8419399,0.000862867189 C73.6292972,-0.0292461665 72.4227076,0.731508751 71.9485461,1.82948485 C71.4764024,2.92545367 71.7528284,4.29842561 72.620443,5.13746401 L98.7638901,31.2319599 C99.6052745,32.0709983 100.977316,32.3540232 102.089073,31.9064022 C103.208902,31.4587813 103.995808,30.3226671 104.003879,29.1464075 L104.003879,3.00574443 C104.003879,1.42803106 102.547093,-0.00515893955 100.93898,0.000862867189 L74.8419399,0.000862867189 Z"/></g><path id="Combined-Shape" fill="url(#linearGradient-10)" d="M124.996957,120.746957 L88.25,84 L88.25,135 L117.155805,135 C121.265623,134.979318 124.996564,131.238141 124.996957,127.127265 L124.996957,120.746957 Z"/><g id="Phone-Shadow" transform="translate(20.000000, 48.000000)"><mask id="mask-12" fill="#fff"><use xlink:href="#path-11"/></mask><g id="Finish-Copy" fill="#000" fill-opacity="1" mask="url(#mask-12)"><use filter="url(#filter-14)" xlink:href="#path-13"/></g></g><g id="Rectangle"><use fill="#212121" fill-rule="evenodd" xlink:href="#path-15"/><use fill="#000" fill-opacity="1" filter="url(#filter-16)" xlink:href="#path-15"/></g><rect id="Finish" width="33" height="54" x="56" y="84" fill="url(#linearGradient-17)" rx="2"/><path id="Bars-Copy" fill="#18A6F8" d="M87.8036358,77.3151973 C85.3577685,71.222036 79.4274357,66.9230769 72.5,66.9230769 C65.5725643,66.9230769 59.6422315,71.222036 57.1963642,77.3151973 C61.156027,73.4535664 66.5523935,71.0769231 72.5,71.0769231 C78.4476065,71.0769231 83.843973,73.4535664 87.8036358,77.3151973 Z M95.4554537,71.4343344 C91.7866528,62.2945924 82.8911536,55.8461538 72.5,55.8461538 C62.1088464,55.8461538 53.2133472,62.2945924 49.5445463,71.4343344 C55.4840405,65.6418881 63.5785903,62.0769231 72.5,62.0769231 C81.4214097,62.0769231 89.5159595,65.6418881 95.4554537,71.4343344 Z M103.107272,62.7842407 C98.2155371,50.5979181 86.3548715,42 72.5,42 C58.6451285,42 46.7844629,50.5979181 41.8927284,62.7842407 C49.812054,55.060979 60.604787,50.3076923 72.5,50.3076923 C84.395213,50.3076923 95.187946,55.060979 103.107272,62.7842407 Z"/></g></g></svg>