<svg xmlns="http://www.w3.org/2000/svg" xmlns:xlink="http://www.w3.org/1999/xlink" width="192" height="192" version="1.1" viewBox="0 0 192 192"><title>ic_launcher_xxxhdpi</title><desc>Created with Sketch.</desc><defs><path id="path-1" d="M68.9706333,168.00115 L4.07848908,168.00115 C1.93432299,167.968842 0,166.003426 0,163.857623 L0,4.13660139 C0,1.99079777 1.93432299,0.0334587075 4.07848908,0.00115049746 L40.7279035,0.00115049746 L77.377318,0.00115049746 C78.4695783,0.0119199008 79.5537677,0.475004245 80.3097409,1.26386304 L136.7952,58.067081 C137.561935,58.834401 138.003143,59.9167261 138.003143,61.0017435 L138.003143,163.857623 C138.003143,166.033042 136.028466,168.00115 133.862778,168.00115 L68.9706333,168.00115 L68.9706333,168.00115 Z"/><filter id="filter-2" width="200%" height="200%" x="-50%" y="-50%" filterUnits="objectBoundingBox"><feOffset dx="0" dy="-1" in="SourceAlpha" result="shadowOffsetInner1"/><feComposite in="shadowOffsetInner1" in2="SourceAlpha" k2="-1" k3="1" operator="arithmetic" result="shadowInnerInner1"/><feColorMatrix in="shadowInnerInner1" result="shadowMatrixInner1" type="matrix" values="0 0 0 0 0.749019608 0 0 0 0 0.211764706 0 0 0 0 0.0470588235 0 0 0 0.2 0"/><feOffset dx="0" dy="1" in="SourceAlpha" result="shadowOffsetInner2"/><feComposite in="shadowOffsetInner2" in2="SourceAlpha" k2="-1" k3="1" operator="arithmetic" result="shadowInnerInner2"/><feColorMatrix in="shadowInnerInner2" result="shadowMatrixInner2" type="matrix" values="0 0 0 0 1 0 0 0 0 1 0 0 0 0 1 0 0 0 0.2 0"/><feMerge><feMergeNode in="shadowMatrixInner1"/><feMergeNode in="shadowMatrixInner2"/></feMerge></filter><path id="path-3" d="M99.1126104,0.00115049746 C97.4957423,-0.0389951557 95.8869452,0.975351681 95.2547256,2.43932983 C94.6251963,3.90063161 94.9937668,5.73127339 96.1505942,6.84999893 L131.008762,41.6428983 C132.130616,42.7616239 133.960017,43.138993 135.442371,42.542161 C136.935485,41.9453289 137.984701,40.4304996 137.995462,38.8621428 L137.995462,4.00768668 C137.995462,1.90405446 136.053068,-0.00687863317 133.908902,0.00115049746 L99.1126104,0.00115049746 L99.1126104,0.00115049746 L99.1126104,0.00115049746 Z"/><filter id="filter-4" width="200%" height="200%" x="-50%" y="-50%" filterUnits="objectBoundingBox"><feOffset dx="0" dy="-1" in="SourceAlpha" result="shadowOffsetInner1"/><feComposite in="shadowOffsetInner1" in2="SourceAlpha" k2="-1" k3="1" operator="arithmetic" result="shadowInnerInner1"/><feColorMatrix in="shadowInnerInner1" result="shadowMatrixInner1" type="matrix" values="0 0 0 0 0.749019608 0 0 0 0 0.211764706 0 0 0 0 0.0470588235 0 0 0 0.2 0"/><feOffset dx="0" dy="1" in="SourceAlpha" result="shadowOffsetInner2"/><feComposite in="shadowOffsetInner2" in2="SourceAlpha" k2="-1" k3="1" operator="arithmetic" result="shadowInnerInner2"/><feColorMatrix in="shadowInnerInner2" result="shadowMatrixInner2" type="matrix" values="0 0 0 0 1 0 0 0 0 1 0 0 0 0 1 0 0 0 0.2 0"/><feMerge><feMergeNode in="shadowMatrixInner1"/><feMergeNode in="shadowMatrixInner2"/></feMerge></filter><linearGradient id="linearGradient-5" x1="0%" x2="100%" y1="-27.714%" y2="100%"><stop offset="0%" stop-color="#000" stop-opacity=".1"/><stop offset="100%" stop-color="#212121" stop-opacity=".05"/></linearGradient><polygon id="path-6" points="8 160 130 160 130 62.4 76 8 8 8"/><filter id="filter-7" width="200%" height="200%" x="-50%" y="-50%" filterUnits="objectBoundingBox"><feOffset dx="0" dy="1" in="SourceAlpha" result="shadowOffsetOuter1"/><feColorMatrix in="shadowOffsetOuter1" result="shadowMatrixOuter1" type="matrix" values="0 0 0 0 0 0 0 0 0 0 0 0 0 0 0 0 0 0 0.2 0"/><feOffset dx="2" dy="2" in="SourceAlpha" result="shadowOffsetOuter2"/><feGaussianBlur in="shadowOffsetOuter2" result="shadowBlurOuter2" stdDeviation="1"/><feColorMatrix in="shadowBlurOuter2" result="shadowMatrixOuter2" type="matrix" values="0 0 0 0 0 0 0 0 0 0 0 0 0 0 0 0 0 0 0.2 0"/><feMerge><feMergeNode in="shadowMatrixOuter1"/><feMergeNode in="shadowMatrixOuter2"/></feMerge></filter><filter id="filter-8" width="200%" height="200%" x="-50%" y="-50%" filterUnits="objectBoundingBox"><feOffset dx="0" dy="1" in="SourceAlpha" result="shadowOffsetInner1"/><feComposite in="shadowOffsetInner1" in2="SourceAlpha" k2="-1" k3="1" operator="arithmetic" result="shadowInnerInner1"/><feColorMatrix in="shadowInnerInner1" result="shadowMatrixInner1" type="matrix" values="0 0 0 0 1 0 0 0 0 1 0 0 0 0 1 0 0 0 0.4 0"/><feOffset dx="0" dy="-1" in="SourceAlpha" result="shadowOffsetInner2"/><feComposite in="shadowOffsetInner2" in2="SourceAlpha" k2="-1" k3="1" operator="arithmetic" result="shadowInnerInner2"/><feColorMatrix in="shadowInnerInner2" result="shadowMatrixInner2" type="matrix" values="0 0 0 0 0.129411765 0 0 0 0 0.129411765 0 0 0 0 0.129411765 0 0 0 0.1 0"/><feMerge><feMergeNode in="shadowMatrixInner1"/><feMergeNode in="shadowMatrixInner2"/></feMerge></filter><linearGradient id="linearGradient-9" x1="-11.418%" x2="108.432%" y1="0%" y2="100%"><stop offset="0%" stop-color="#FFF" stop-opacity=".1"/><stop offset="9.348%" stop-color="#FFF" stop-opacity=".091"/><stop offset="100%" stop-color="#FFF" stop-opacity="0"/></linearGradient><linearGradient id="linearGradient-10" x1="0%" x2="123.999%" y1="0%" y2="93.949%"><stop offset="0%" stop-color="#212121" stop-opacity=".1"/><stop offset="100%" stop-color="#212121" stop-opacity="0"/></linearGradient><rect id="path-11" width="138" height="108" x="0" y="0"/><rect id="path-13" width="44" height="72" x="47" y="40" rx="2"/><filter id="filter-14" width="200%" height="200%" x="-50%" y="-50%" filterUnits="objectBoundingBox"><feOffset dx="4" dy="4" in="SourceAlpha" result="shadowOffsetOuter1"/><feGaussianBlur in="shadowOffsetOuter1" result="shadowBlurOuter1" stdDeviation="2"/><feColorMatrix in="shadowBlurOuter1" result="shadowMatrixOuter1" type="matrix" values="0 0 0 0 0 0 0 0 0 0 0 0 0 0 0 0 0 0 0.2 0"/><feOffset dx="0" dy="1" in="SourceAlpha" result="shadowOffsetOuter2"/><feColorMatrix in="shadowOffsetOuter2" result="shadowMatrixOuter2" type="matrix" values="0 0 0 0 0 0 0 0 0 0 0 0 0 0 0 0 0 0 0.2 0"/><feMerge><feMergeNode in="shadowMatrixOuter1"/><feMergeNode in="shadowMatrixOuter2"/></feMerge></filter><rect id="path-15" width="44" height="72" x="74" y="112" rx="2"/><filter id="filter-16" width="200%" height="200%" x="-50%" y="-50%" filterUnits="objectBoundingBox"><feOffset dx="0" dy="-1" in="SourceAlpha" result="shadowOffsetInner1"/><feComposite in="shadowOffsetInner1" in2="SourceAlpha" k2="-1" k3="1" operator="arithmetic" result="shadowInnerInner1"/><feColorMatrix in="shadowInnerInner1" result="shadowMatrixInner1" type="matrix" values="0 0 0 0 0 0 0 0 0 0 0 0 0 0 0 0 0 0 0.2 0"/><feOffset dx="0" dy="1" in="SourceAlpha" result="shadowOffsetInner2"/><feComposite in="shadowOffsetInner2" in2="SourceAlpha" k2="-1" k3="1" operator="arithmetic" result="shadowInnerInner2"/><feColorMatrix in="shadowInnerInner2" result="shadowMatrixInner2" type="matrix" values="0 0 0 0 1 0 0 0 0 1 0 0 0 0 1 0 0 0 0.2 0"/><feMerge><feMergeNode in="shadowMatrixInner1"/><feMergeNode in="shadowMatrixInner2"/></feMerge></filter><linearGradient id="linearGradient-17" x1="-34.935%" x2="127.518%" y1="0%" y2="100%"><stop offset="0%" stop-color="#FFF" stop-opacity=".1"/><stop offset="100%" stop-color="#FFF" stop-opacity="0"/></linearGradient></defs><g id="Icons" fill="none" fill-rule="evenodd" stroke="none" stroke-width="1"><g id="ic_launcher_xxxhdpi"><g id="orange_xxxhdpi" transform="translate(27.000000, 12.000000)"><g id="Combined-Shape"><use fill="#D36118" fill-rule="evenodd" xlink:href="#path-1"/><use fill="#000" fill-opacity="1" filter="url(#filter-2)" xlink:href="#path-1"/></g><g id="Corner"><use fill="#D36118" fill-rule="evenodd" xlink:href="#path-3"/><use fill="#000" fill-opacity="1" filter="url(#filter-4)" xlink:href="#path-3"/></g></g><g id="paper_xxxhdpi" transform="translate(27.000000, 12.000000)"><path id="Long-Shadow" fill="url(#linearGradient-5)" fill-rule="evenodd" d="M101.416705,168 L16,168 L8,160 L130,160 L130,62.4000015 L138,70.4000015 L138,164.006979 C137.911748,166.121829 135.978404,168 133.862778,168 L101.416705,168 Z"/><g id="Paper"><use fill="#000" fill-opacity="1" filter="url(#filter-7)" xlink:href="#path-6"/><use fill="#F5F5F5" fill-rule="evenodd" xlink:href="#path-6"/><use fill="#000" fill-opacity="1" filter="url(#filter-8)" xlink:href="#path-6"/></g></g><g id="finish_xxxhdpi" fill="url(#linearGradient-9)" transform="translate(27.000000, 12.000000)"><path id="Combined-Shape" d="M68.9706333,168.00115 L4.07848908,168.00115 C1.93432299,167.968842 0,166.003426 0,163.857623 L0,4.13660139 C0,1.99079777 1.93432299,0.0334587075 4.07848908,0.00115049746 L40.7279035,0.00115049746 L77.377318,0.00115049746 C78.4695783,0.0119199008 79.5537677,0.475004245 80.3097409,1.26386304 L136.7952,58.067081 C137.561935,58.834401 138.003143,59.9167261 138.003143,61.0017435 L138.003143,163.857623 C138.003143,166.033042 136.028466,168.00115 133.862778,168.00115 L68.9706333,168.00115 Z M99.1126104,0.00115049746 C97.4957423,-0.0389951557 95.8869452,0.975351681 95.2547256,2.43932983 C94.6251963,3.90063161 94.9937668,5.73127339 96.1505942,6.84999893 L131.008762,41.6428983 C132.130616,42.7616239 133.960017,43.138993 135.442371,42.542161 C136.935485,41.9453289 137.984701,40.4304996 137.995462,38.8621428 L137.995462,4.00768668 C137.995462,1.90405446 136.053068,-0.00687863317 133.908902,0.00115049746 L99.1126104,0.00115049746 Z"/></g><path id="Combined-Shape" fill="url(#linearGradient-10)" d="M165.995942,160.995942 L117,112 L117,180 L155.541073,180 C161.020831,179.972425 165.995419,174.984187 165.995942,169.50302 L165.995942,160.995942 Z"/><g id="Phone-Shadow" transform="translate(27.000000, 72.000000)"><mask id="mask-12" fill="#fff"><use xlink:href="#path-11"/></mask><g id="Finish-Copy" fill="#000" fill-opacity="1" mask="url(#mask-12)"><use filter="url(#filter-14)" xlink:href="#path-13"/></g></g><g id="Phone"><use fill="#212121" fill-rule="evenodd" xlink:href="#path-15"/><use fill="#000" fill-opacity="1" filter="url(#filter-16)" xlink:href="#path-15"/></g><rect id="Finish" width="44" height="72" x="74" y="112" fill="url(#linearGradient-17)" rx="2"/><path id="Bars-Copy" fill="#18A6F8" d="M116.404848,103.08693 C113.143691,94.9627146 105.236581,89.2307692 96,89.2307692 C86.763419,89.2307692 78.8563086,94.9627146 75.5951523,103.08693 C80.8747027,97.9380886 88.069858,94.7692308 96,94.7692308 C103.930142,94.7692308 111.125297,97.9380886 116.404848,103.08693 Z M126.607272,95.2457792 C121.715537,83.0594565 109.854871,74.4615385 96,74.4615385 C82.1451285,74.4615385 70.2844629,83.0594565 65.3927284,95.2457792 C73.312054,87.5225174 84.104787,82.7692308 96,82.7692308 C107.895213,82.7692308 118.687946,87.5225174 126.607272,95.2457792 Z M136.809695,83.7123209 C130.287383,67.4638908 114.473162,56 96,56 C77.526838,56 61.7126173,67.4638908 55.1903045,83.7123209 C65.7494053,73.4146386 80.139716,67.0769231 96,67.0769231 C111.860284,67.0769231 126.250595,73.4146386 136.809695,83.7123209 Z"/></g></g></svg>