<svg xmlns="http://www.w3.org/2000/svg" xmlns:svg="http://www.w3.org/2000/svg" id="svg2" width="192" height="192" version="1.1" viewBox="0 0 192 192" xml:space="preserve"><metadata id="metadata8"/><defs id="defs6"><clipPath id="clipPath20" clipPathUnits="userSpaceOnUse"><path id="path18" d="M 0,144 H 144 V 0 H 0 Z"/></clipPath></defs><g id="g10" transform="matrix(1.3333333,0,0,-1.3333333,0,192)"><path style="fill:#f8971c;fill-opacity:1;fill-rule:nonzero;stroke:none;stroke-width:1.00079954" id="path12" d="M 0,0 H 144 V 144 H 0 Z"/><g id="g14"><g id="g16" clip-path="url(#clipPath20)"><g id="g22" transform="translate(25.5146,134.0903)"><path style="fill:#fff;fill-opacity:1;fill-rule:nonzero;stroke:none" id="path24" d="m 0,0 h 55.035 l 42.828,-42.832 v -75.754 c 0,0 0.46,-2.764 -2.301,-2.764 H 0 c 0,0 -2.763,-0.287 -2.763,1.842 V -2.072 c 0,0 0.46,2.072 2.763,2.072"/></g><g id="g26" transform="translate(28.5083,128.5635)"><path style="fill:#f8971c;fill-opacity:1;fill-rule:nonzero;stroke:none" id="path28" d="M 0,0 H 49.585 L 88.73,-39.759 v -70.539 H 0 Z"/></g><g id="g30" transform="translate(94.3662,134.0903)"><path style="fill:#fff;fill-opacity:1;fill-rule:nonzero;stroke:none" id="path32" d="m 0,0 h 26.865 c 0,0 2.204,-0.613 2.176,-2.302 -0.029,-1.689 0,-26.557 0,-26.557 0,0 -0.642,-2.918 -4.48,-1.689 l -26.403,26.25 c 0,0 -1.538,2.916 1.842,4.298"/></g><path style="fill:#fff;fill-opacity:1;fill-rule:nonzero;stroke:none" id="path34" d="M 101.865,71.559 H 49.601 v 7.502 h 52.264 z"/><path style="fill:#fff;fill-opacity:1;fill-rule:nonzero;stroke:none" id="path36" d="M 85.716,62.91 H 82.41 v 2.926 h 3.306 z"/><path style="fill:#fff;fill-opacity:1;fill-rule:nonzero;stroke:none" id="path38" d="M 99.449,62.91 H 88.007 v 2.926 h 11.442 z"/><path style="fill:#fff;fill-opacity:1;fill-rule:nonzero;stroke:none" id="path40" d="M 85.716,56.172 H 82.41 v 2.924 h 3.306 z"/><path style="fill:#fff;fill-opacity:1;fill-rule:nonzero;stroke:none" id="path42" d="M 99.449,56.172 H 88.007 v 2.924 h 11.442 z"/><path style="fill:#fff;fill-opacity:1;fill-rule:nonzero;stroke:none" id="path44" d="M 85.716,49.559 H 82.41 v 2.926 h 3.306 z"/><path style="fill:#fff;fill-opacity:1;fill-rule:nonzero;stroke:none" id="path46" d="M 99.449,49.559 H 88.007 v 2.926 h 11.442 z"/><g id="g48" transform="translate(107.8311,36.0215)"><path style="fill:none;stroke:#fff;stroke-width:2.58699989;stroke-linecap:butt;stroke-linejoin:miter;stroke-miterlimit:10;stroke-dasharray:none;stroke-opacity:1" id="path50" d="m 0,0 c 0,-0.949 -0.773,-1.723 -1.725,-1.723 h -60.514 c -0.952,0 -1.724,0.774 -1.724,1.723 v 45.385 c 0,0.952 0.772,1.724 1.724,1.724 H -1.725 C -0.773,47.109 0,46.337 0,45.385 Z"/></g><g id="g52" transform="translate(-6.6162,5.8643)"><path style="fill:#fff;fill-opacity:1;fill-rule:nonzero;stroke:none" id="path54" d="m 0,0 30.123,80.718 c 0,0 4.328,7.448 11.507,4.768 3.686,-1.375 37.837,-14.119 37.837,-14.119 0,0 6.067,-4.475 5.108,-10.085 -0.734,-4.288 -30.848,-82.659 -30.848,-82.659 0,0 -4.405,-5.209 -9.45,-3.326 -2.523,0.941 -38.806,14.482 -38.806,14.482 0,0 -6.597,2.463 -5.471,10.221"/></g><g id="g56" transform="translate(46.4883,-3.4795)"><path style="fill:#f8971c;fill-opacity:1;fill-rule:nonzero;stroke:none" id="path58" d="M 0,0 -45.21,16.873 -21.314,80.904 23.897,64.033 Z"/></g><g id="g60" transform="translate(26.1382,-5.6963)"><path style="fill:#f8971c;fill-opacity:1;fill-rule:nonzero;stroke:none" id="path62" d="m 0,0 c -1.09,-2.922 -4.34,-4.404 -7.261,-3.313 -2.92,1.088 -4.404,4.336 -3.314,7.26 1.09,2.92 4.34,4.403 7.261,3.315 C -0.394,6.17 1.089,2.92 0,0"/></g><g id="g64" transform="translate(43.5781,78.1289)"><path style="fill:#f8971c;fill-opacity:1;fill-rule:nonzero;stroke:none" id="path66" d="m 0,0 c -0.192,-0.514 -0.765,-0.776 -1.279,-0.583 -0.515,0.191 -0.776,0.764 -0.584,1.279 0.192,0.514 0.765,0.776 1.28,0.584 C -0.069,1.088 0.192,0.515 0,0"/></g><g id="g68" transform="translate(45.9355,78.311)"><path style="fill:#f8971c;fill-opacity:1;fill-rule:nonzero;stroke:none" id="path70" d="m 0,0 9.318,-3.478 c 0,0 0.968,-1.422 -0.695,-1.863 l -9.319,3.478 c 0,0 -1.193,1.153 0.696,1.863"/></g><g id="g72" transform="translate(23.8608,29.6455)"><path style="fill:none;stroke:#fff;stroke-width:3.03699994;stroke-linecap:butt;stroke-linejoin:miter;stroke-miterlimit:10;stroke-dasharray:none;stroke-opacity:1" id="path74" d="m 0,0 c 0,0 3.857,1.893 8.62,-0.187 5.961,-2.602 6.328,-6.688 6.328,-6.688"/></g><g id="g76" transform="translate(21.0669,36.8643)"><path style="fill:none;stroke:#fff;stroke-width:3.03699994;stroke-linecap:butt;stroke-linejoin:miter;stroke-miterlimit:10;stroke-dasharray:none;stroke-opacity:1" id="path78" d="m 0,0 c 0,0 7.8,2.699 15.038,-0.631 7.845,-3.607 9.152,-11.031 9.152,-11.031"/></g><g id="g80" transform="translate(19.5352,43.9854)"><path style="fill:none;stroke:#fff;stroke-width:3.03699994;stroke-linecap:butt;stroke-linejoin:miter;stroke-miterlimit:10;stroke-dasharray:none;stroke-opacity:1" id="path82" d="m 0,0 c 0,0 9.275,3.93 20.709,-1.047 10.128,-4.41 12.638,-15.379 12.638,-15.379"/></g><g id="g84" transform="translate(34.7681,20.8818)"><path style="fill:none;stroke:#f8971c;stroke-width:1.01199996;stroke-linecap:butt;stroke-linejoin:miter;stroke-miterlimit:10;stroke-dasharray:none;stroke-opacity:1" id="path86" d="M 0,0 22.591,8.461"/></g><g id="g88" transform="translate(24.6064,25.7197)"><path style="fill:none;stroke:#f8971c;stroke-width:1.01199996;stroke-linecap:butt;stroke-linejoin:miter;stroke-miterlimit:10;stroke-dasharray:none;stroke-opacity:1" id="path90" d="M 0,0 -6.423,21.998"/></g></g></g></g></svg>